<?xml version="1.0" encoding="UTF-8" standalone="no"?>
<!-- Created with Inkscape (http://www.inkscape.org/) -->

<svg
   xmlns:dc="http://purl.org/dc/elements/1.1/"
   xmlns:cc="http://creativecommons.org/ns#"
   xmlns:rdf="http://www.w3.org/1999/02/22-rdf-syntax-ns#"
   xmlns:svg="http://www.w3.org/2000/svg"
   xmlns="http://www.w3.org/2000/svg"
   xmlns:sodipodi="http://sodipodi.sourceforge.net/DTD/sodipodi-0.dtd"
   xmlns:inkscape="http://www.inkscape.org/namespaces/inkscape"
   id="svg15609"
   version="1.1"
   inkscape:version="0.48.5 r10040"
   width="336.25"
   height="190"
   xml:space="preserve"
   sodipodi:docname="fig_Results4_8_sqrt_cut_back_bending_cartoon.svg"><metadata
     id="metadata15615"><rdf:RDF><cc:Work
         rdf:about=""><dc:format>image/svg+xml</dc:format><dc:type
           rdf:resource="http://purl.org/dc/dcmitype/StillImage" /><dc:title /></cc:Work></rdf:RDF></metadata><defs
     id="defs15613"><marker
       inkscape:stockid="Arrow1Send"
       orient="auto"
       refY="0.0"
       refX="0.0"
       id="Arrow1Send"
       style="overflow:visible;"><path
         id="path3873"
         d="M 0.0,0.0 L 5.0,-5.0 L -12.5,0.0 L 5.0,5.0 L 0.0,0.0 z "
         style="fill-rule:evenodd;stroke:#000000;stroke-width:1.0pt;"
         transform="scale(0.2) rotate(180) translate(6,0)" /></marker><marker
       inkscape:stockid="Arrow2Mend"
       orient="auto"
       refY="0.0"
       refX="0.0"
       id="Arrow2Mend"
       style="overflow:visible;"><path
         id="path3885"
         style="fill-rule:evenodd;stroke-width:0.62500000;stroke-linejoin:round;"
         d="M 8.7185878,4.0337352 L -2.2072895,0.016013256 L 8.7185884,-4.0017078 C 6.9730900,-1.6296469 6.9831476,1.6157441 8.7185878,4.0337352 z "
         transform="scale(0.6) rotate(180) translate(0,0)" /></marker><marker
       inkscape:stockid="Arrow2Mend"
       orient="auto"
       refY="0"
       refX="0"
       id="Arrow2Mend-0"
       style="overflow:visible"><path
         inkscape:connector-curvature="0"
         id="path3885-9"
         style="fill-rule:evenodd;stroke-width:0.625;stroke-linejoin:round"
         d="M 8.7185878,4.0337352 -2.2072895,0.01601326 8.7185884,-4.0017078 c -1.7454984,2.3720609 -1.7354408,5.6174519 -6e-7,8.035443 z"
         transform="scale(-0.6,-0.6)" /></marker></defs><sodipodi:namedview
     pagecolor="#ffffff"
     bordercolor="#666666"
     borderopacity="1"
     objecttolerance="10"
     gridtolerance="10"
     guidetolerance="10"
     inkscape:pageopacity="0"
     inkscape:pageshadow="2"
     inkscape:window-width="971"
     inkscape:window-height="669"
     id="namedview15611"
     showgrid="false"
     inkscape:zoom="1.6991592"
     inkscape:cx="168.125"
     inkscape:cy="95"
     inkscape:window-x="0"
     inkscape:window-y="0"
     inkscape:window-maximized="0"
     inkscape:current-layer="g15619" /><g
     id="g15617"
     inkscape:groupmode="layer"
     inkscape:label="ink_ext_XXXXXX"
     transform="matrix(1.25,0,0,-1.25,0,190)"><g
       id="g15619"
       transform="scale(0.1,0.1)"><path
         d="m 162.031,1324.52 2506.019,0"
         style="fill:none;stroke:#000000;stroke-opacity:1;stroke-width:36.3402;stroke-linecap:butt;stroke-linejoin:miter;stroke-miterlimit:4;stroke-dasharray:none"
         id="path15621" /><path
         d="m 162.031,1333.74 0,-525.154"
         style="fill:none;stroke:#000000;stroke-opacity:1;stroke-width:27.8362;stroke-linecap:butt;stroke-linejoin:miter;stroke-miterlimit:4;stroke-dasharray:none"
         id="path15623" /><path
         d="m 2652.3,1330.27 0,-525.165"
         style="fill:none;stroke:#000000;stroke-opacity:1;stroke-width:27.8362;stroke-linecap:butt;stroke-linejoin:miter;stroke-miterlimit:4;stroke-dasharray:none"
         id="path15625" /><path
         d="m 1404.41,1324.52 0,-257.97"
         style="fill:none;stroke:#f90b0b;stroke-opacity:1;stroke-width:56.1827;stroke-linecap:butt;stroke-linejoin:miter;stroke-miterlimit:4;stroke-dasharray:none"
         id="path15627" /><g
         id="g15629"
         transform="scale(10,10)"><text
           transform="matrix(1,0,0,-1,19.4926,116.284)"
           id="text15631"><tspan
             style="fill:#000000;fill-opacity:1;fill-rule:nonzero;stroke:none;font-family:Verdana;font-variant:normal;font-weight:normal;font-size:17.6;writing-mode:lr;-inkscape-font-specification:Verdana"
             x="0 10.5776"
             y="0"
             sodipodi:role="line"
             id="tspan15633">a)</tspan></text>
</g><path
         d="m 175.391,817.566 651.488,52.11 475.541,123.793 97.74,71.641"
         style="fill:none;stroke:#000000;stroke-opacity:1;stroke-width:25.0016;stroke-linecap:butt;stroke-linejoin:miter;stroke-miterlimit:4;stroke-dasharray:none"
         id="path15635" /><path
         d="m 2637.97,817.566 -651.49,52.11 -475.58,123.793 -97.74,71.641"
         style="fill:none;stroke:#000000;stroke-opacity:1;stroke-width:25.0016;stroke-linecap:butt;stroke-linejoin:miter;stroke-miterlimit:4;stroke-dasharray:none"
         id="path15637" /><path
         d="m 160.199,529.477 2505.971,0"
         style="fill:none;stroke:#000000;stroke-opacity:1;stroke-width:36.3402;stroke-linecap:butt;stroke-linejoin:miter;stroke-miterlimit:4;stroke-dasharray:none"
         id="path15639" /><path
         d="m 160.199,538.656 0,-525.1482"
         style="fill:none;stroke:#000000;stroke-opacity:1;stroke-width:27.8362;stroke-linecap:butt;stroke-linejoin:miter;stroke-miterlimit:4;stroke-dasharray:none"
         id="path15641" /><path
         d="m 2650.47,535.188 0,-525.1607"
         style="fill:none;stroke:#000000;stroke-opacity:1;stroke-width:27.8362;stroke-linecap:butt;stroke-linejoin:miter;stroke-miterlimit:4;stroke-dasharray:none"
         id="path15643" /><path
         d="m 1402.58,529.477 0,-257.961"
         style="fill:none;stroke:#f90b0b;stroke-opacity:1;stroke-width:56.1827;stroke-linecap:butt;stroke-linejoin:miter;stroke-miterlimit:4;stroke-dasharray:none"
         id="path15645" /><g
         id="g15647"
         transform="scale(10,10)"><text
           transform="matrix(1,0,0,-1,19.3082,36.7785)"
           id="text15649"><tspan
             style="fill:#000000;fill-opacity:1;fill-rule:nonzero;stroke:none;font-family:Verdana;font-variant:normal;font-weight:normal;font-size:17.6;writing-mode:lr;-inkscape-font-specification:Verdana"
             x="0 10.9648"
             y="0"
             sodipodi:role="line"
             id="tspan15651">b)</tspan></text>
</g><path
         d="M 173.551,22.4883 825,74.6367 l 475.59,123.7503 97.73,71.679"
         style="fill:none;stroke:#000000;stroke-opacity:1;stroke-width:25.0016;stroke-linecap:butt;stroke-linejoin:miter;stroke-miterlimit:4;stroke-dasharray:none"
         id="path15653" /><path
         d="m 2636.09,22.4883 -651.44,52.1484 -475.59,123.7503 -97.73,71.679"
         style="fill:none;stroke:#000000;stroke-opacity:1;stroke-width:25.0016;stroke-linecap:butt;stroke-linejoin:miter;stroke-miterlimit:4;stroke-dasharray:25.0016,25.0016;stroke-dashoffset:15.0009"
         id="path15655" /><path
         d="m 1453.79,307.328 c 41.91,29.102 -113.4,-68.828 -60.59,-32.297 8.6,5.899 15.04,14.289 21.96,21.989 8.75,6.992 16.6,14.839 24.37,22.808 10.47,11.063 20.67,22.274 31.41,33.051 8.67,9.492 18.44,17.769 29.02,25.043 52.34,33.316 175.98,101.719 13.16,8.707 -1.44,-0.82 2.78,1.871 4.22,2.691 83.25,48.211 56.72,34.649 89.38,51.25 -209.88,-120.851 4.41,2.621 6.68,3.91 5.86,3.36 12.58,5.04 18.63,8.008 10.39,6.41 21.68,10.782 32.54,16.293 10.31,4.688 21.13,8.438 31.84,12.34 7.5,4.488 3.39,2.231 11.09,6.129 1.6,0.82 6.45,3.398 4.84,2.5 -25.82,-14.922 -103.47,-59.371 -77.61,-44.531 28.94,16.64 57.73,33.519 86.87,49.851 25.86,14.45 -51.4,-29.57 -77.07,-44.34 229.45,131.29 13.63,7.622 10.24,5.668 -1.61,-0.937 3.16,2.071 4.76,3.043 5.59,3.52 10.98,7.11 16.29,11.098 30.2,23.32 66.56,39.84 98.79,58.32 5.43,3.121 10.39,5.352 16.37,7.219 7.46,6.141 17.57,6.641 25.62,11.25 l -75.58,-59.758 c -8.83,-2.699 -16.84,-7.07 -25.36,-10.59 -7.54,-3.55 -2.96,-1.289 -10.35,-5.23 -1.76,-0.941 -7.03,-3.828 -5.31,-2.82 135.12,78.789 92.62,54.648 64.3,37.07 -47.78,-40.66 -202.82,-114.57 -30.35,-20.93 -288.72,-166.25 191.99,109.41 -96.49,-55.281 -5.16,-2.93 -10.7,-5.309 -16.17,-7.539 -10.63,-4.211 -21.49,-7.852 -31.6,-13.238 -10.94,-5.153 -21.64,-10.703 -32.54,-15.973 -5.27,-2.23 -10.51,-4.539 -15.59,-7.23 -1.09,-0.547 -4.29,-2.379 -3.24,-1.758 8.75,5.078 212.5,123.168 -6.87,-3.942 -29.69,-16.371 3.71,1.993 75.54,43.711 1.41,0.821 -2.97,-1.492 -4.41,-2.351 -28.79,-16.68 -57.42,-33.75 -86.33,-50.231 -24.37,-13.91 108.75,64.614 72.73,42.231 -9.68,-8.321 -21.75,-13.91 -30,-23.989 -10.62,-11.011 -22.22,-20.82 -31.17,-33.359 -8.32,-7.191 -14.61,-16.402 -23.59,-22.851 -8.75,-5.981 -14.34,-15.469 -21.64,-23.008 -33.01,-23.672 -67.62,-47.223 -105.31,-62.383"
         style="fill:#ffff00;fill-opacity:1;fill-rule:nonzero;stroke:none"
         id="path15657" /><path
         d="m 1453.79,307.336 c 41.91,29.102 -113.4,-68.828 -60.59,-32.309 8.6,5.899 15.04,14.301 21.96,21.989 8.75,7 16.6,14.851 24.37,22.82 10.47,11.051 20.67,22.262 31.41,33.043 8.67,9.488 18.44,17.777 29.02,25.039 52.34,33.32 175.98,101.719 13.16,8.711 -1.44,-0.82 2.78,1.879 4.22,2.699 83.25,48.199 56.72,34.649 89.38,51.25 -209.88,-120.859 4.41,2.617 6.68,3.899 5.86,3.359 12.58,5.039 18.63,8.011 10.39,6.41 21.68,10.778 32.54,16.289 10.31,4.692 21.13,8.442 31.84,12.34 7.5,4.5 3.39,2.231 11.09,6.141 1.6,0.82 6.45,3.398 4.84,2.5 -25.82,-14.922 -103.47,-59.379 -77.61,-44.531 28.94,16.64 57.73,33.511 86.87,49.839 25.86,14.45 -51.4,-29.57 -77.07,-44.339 229.45,131.289 13.63,7.621 10.24,5.671 -1.61,-0.941 3.16,2.071 4.76,3.04 5.59,3.519 10.98,7.109 16.29,11.101 30.2,23.316 66.56,39.84 98.79,58.316 5.43,3.122 10.39,5.352 16.37,7.231 7.46,6.133 17.57,6.641 25.62,11.25 l -75.58,-59.77 c -8.83,-2.699 -16.84,-7.07 -25.36,-10.589 -7.54,-3.551 -2.96,-1.282 -10.35,-5.231 -1.76,-0.937 -7.03,-3.828 -5.31,-2.808 135.12,78.789 92.62,54.648 64.3,37.07 -47.78,-40.672 -202.82,-114.57 -30.35,-20.942 -288.72,-166.25 191.99,109.411 -96.49,-55.269 -5.16,-2.93 -10.7,-5.32 -16.17,-7.539 -10.63,-4.219 -21.49,-7.852 -31.6,-13.242 -10.94,-5.161 -21.64,-10.707 -32.54,-15.977 -5.27,-2.23 -10.51,-4.531 -15.59,-7.23 -1.09,-0.543 -4.29,-2.383 -3.24,-1.762 8.75,5.082 212.5,123.172 -6.87,-3.942 -29.69,-16.367 3.71,1.993 75.54,43.711 1.41,0.821 -2.97,-1.48 -4.41,-2.339 -28.79,-16.68 -57.42,-33.75 -86.33,-50.239 -24.37,-13.902 108.75,64.61 72.73,42.231 -9.68,-8.321 -21.75,-13.91 -30,-23.992 -10.62,-11.008 -22.22,-20.821 -31.17,-33.36 -8.32,-7.179 -14.61,-16.398 -23.59,-22.851 -8.75,-5.969 -14.34,-15.469 -21.64,-23 -33.01,-23.68 -67.62,-47.227 -105.31,-62.387 l 76.52,59.457 z"
         style="fill:none;stroke:#f90b0b;stroke-opacity:1;stroke-width:25.0016;stroke-linecap:butt;stroke-linejoin:miter;stroke-miterlimit:4;stroke-dasharray:25.0016,25.0016;stroke-dashoffset:15.0009"
         id="path15659" /><path
         d="m 1810.59,543.938 149.84,97.73 104.22,-52.109 71.68,-13.043 501.64,-19.539"
         style="fill:none;stroke:#fbb701;stroke-opacity:1;stroke-width:22.1669;stroke-linecap:butt;stroke-linejoin:miter;stroke-miterlimit:4;stroke-dasharray:none"
         id="path15661" /><path
         d="m 1536.95,355.027 104.26,-91.211 214.96,-52.109 768.75,-175.8984"
         style="fill:none;stroke:#fbb701;stroke-opacity:1;stroke-width:25.0016;stroke-linecap:butt;stroke-linejoin:miter;stroke-miterlimit:4;stroke-dasharray:none"
         id="path15663" /><path
         d="m 1778.95,495.336 147.42,-82.93 165.82,-55.269 529.76,-50.66"
         style="fill:none;stroke:#0d6bf1;stroke-opacity:1;stroke-width:19.3323;stroke-linecap:butt;stroke-linejoin:miter;stroke-miterlimit:4;stroke-dasharray:none"
         id="path15665" /><g
         id="g15675"
         transform="scale(10,10)"><text
           transform="matrix(1,0,0,-1,208.42,70.6809)"
           id="text15677"><tspan
             style="fill:#ff6600;fill-opacity:1;fill-rule:nonzero;stroke:none;font-family:Verdana;font-variant:normal;font-weight:bold;font-size:9.6;writing-mode:lr;-inkscape-font-specification:Verdana-Bold"
             x="0 7.3152 12.0864 18.4608 24.8736 31.3152 37.728 47.15530627 53.56810627"
             y="0"
             sodipodi:role="line"
             id="tspan15679">Breakaway</tspan></text>
</g><path
         d="m 2051.64,732.879 -65.16,-58.633"
         style="fill:none;stroke:#000000;stroke-opacity:1;stroke-width:7.9937;stroke-linecap:butt;stroke-linejoin:miter;stroke-miterlimit:4;stroke-dasharray:none"
         id="path15681" /><path
         d="m 2010.23,695.609 1.22,22.582 -30.9,-49.293 52.26,25.543"
         style="fill:#000000;fill-opacity:1;fill-rule:evenodd;stroke:none"
         id="path15683" /><path
         d="m 2010.23,695.617 1.21,22.571 -30.9,-49.293 52.28,25.543 -22.59,1.179 z"
         style="fill:none;stroke:#000000;stroke-opacity:1;stroke-width:3.99686;stroke-linecap:butt;stroke-linejoin:miter;stroke-miterlimit:4;stroke-dasharray:none"
         id="path15685" /><path
         style="fill:none;stroke:#000000;stroke-width:16;stroke-linecap:butt;stroke-linejoin:miter;stroke-miterlimit:4;stroke-opacity:1;stroke-dasharray:none;marker-end:url(#Arrow2Mend)"
         d="m 2711.9295,-51.790305 0,489.653915"
         id="path3133"
         inkscape:connector-curvature="0" /><path
         style="fill:none;stroke:#000000;stroke-width:16;stroke-linecap:butt;stroke-linejoin:miter;stroke-miterlimit:4;stroke-opacity:1;stroke-dasharray:none;marker-end:url(#Arrow2Mend)"
         d="m 2713.8163,-51.944057 -489.6539,0"
         id="path3133-4"
         inkscape:connector-curvature="0" /><text
         xml:space="preserve"
         style="font-size:160px;font-style:normal;font-variant:normal;font-weight:bold;font-stretch:normal;line-height:125%;letter-spacing:0px;word-spacing:0px;fill:#000000;fill-opacity:1;stroke:none;font-family:Arial;-inkscape-font-specification:Arial Bold"
         x="2664.8474"
         y="-461.40469"
         id="text17438"
         sodipodi:linespacing="125%"
         transform="scale(1,-1)"><tspan
           sodipodi:role="line"
           id="tspan17440"
           x="2664.8474"
           y="-461.40469">Y</tspan></text>
<text
         xml:space="preserve"
         style="font-size:160px;font-style:normal;font-variant:normal;font-weight:bold;font-stretch:normal;line-height:125%;letter-spacing:0px;word-spacing:0px;fill:#000000;fill-opacity:1;stroke:none;font-family:Arial;-inkscape-font-specification:Arial Bold"
         x="2085.7375"
         y="103.58069"
         id="text17442"
         sodipodi:linespacing="125%"
         transform="scale(1,-1)"><tspan
           sodipodi:role="line"
           id="tspan17444"
           x="2085.7375"
           y="103.58069">X</tspan></text>
<text
         xml:space="preserve"
         style="font-size:77.57482147px;font-style:normal;font-weight:normal;text-align:center;line-height:125%;letter-spacing:0px;word-spacing:0px;text-anchor:middle;fill:#000000;fill-opacity:1;stroke:none;font-family:Sans"
         x="2242.5269"
         y="-398.37305"
         id="text3018-13-9"
         sodipodi:linespacing="125%"
         transform="scale(1.0019075,-0.99809612)"><tspan
           sodipodi:role="line"
           x="2242.5269"
           y="-398.37305"
           style="font-size:77.57482147px;font-weight:bold;-inkscape-font-specification:Sans Bold"
           id="tspan3686-0-7"><tspan
   id="tspan3161-8-5"
   style="font-size:206.86619568px;font-weight:normal">ğœ</tspan>xx <tspan
   style="font-size:116.36223602px"
   id="tspan17937-9">&lt; 0</tspan></tspan></text>
<text
         xml:space="preserve"
         style="font-size:77.57482147px;font-style:normal;font-weight:normal;text-align:center;line-height:125%;letter-spacing:0px;word-spacing:0px;text-anchor:middle;fill:#000000;fill-opacity:1;stroke:none;font-family:Sans"
         x="2038.1096"
         y="-235.62994"
         id="text3018-13-9-0"
         sodipodi:linespacing="125%"
         transform="scale(1.0019075,-0.99809613)"><tspan
           sodipodi:role="line"
           x="2038.1096"
           y="-235.62994"
           style="font-size:77.57482147px;font-weight:bold;-inkscape-font-specification:Sans Bold"
           id="tspan3686-0-7-9"><tspan
   id="tspan3161-8-5-4"
   style="font-size:206.86619568px;font-weight:normal">ğœ</tspan>xx <tspan
   style="font-size:160px;font-weight:normal;-inkscape-font-specification:Sans"
   id="tspan17993">&gt;</tspan><tspan
   style="font-size:116.36223602px"
   id="tspan17937-9-8"> 0</tspan></tspan></text>
</g><path
       style="fill:none;stroke:#000000;stroke-width:1.60000002;stroke-linecap:butt;stroke-linejoin:miter;stroke-miterlimit:4;stroke-opacity:1;stroke-dasharray:none;marker-end:url(#Arrow1Send)"
       d="m 159.46906,35.955446 16.40838,8.952347"
       id="path15707"
       inkscape:connector-curvature="0" /><path
       style="fill:none;stroke:#000000;stroke-width:1.60000002;stroke-linecap:butt;stroke-linejoin:miter;stroke-miterlimit:4;stroke-opacity:1;stroke-dasharray:none;marker-end:url(#Arrow1Send)"
       d="M 163.79703,50.271042 148.81559,41.615098"
       id="path16587"
       inkscape:connector-curvature="0" /></g></svg>